<?xml version="1.0" encoding="utf-8"?>
<!-- Generator: Adobe Illustrator 27.5.0, SVG Export Plug-In . SVG Version: 6.00 Build 0)  -->
<svg version="1.1" xmlns="http://www.w3.org/2000/svg" xmlns:xlink="http://www.w3.org/1999/xlink" x="0px" y="0px"
	 viewBox="0 0 500 500" style="enable-background:new 0 0 500 500;" xml:space="preserve">
<g id="_BACKGROUND">
	<rect style="fill:none;" width="500" height="500"/>
</g>
<g id="OBJECTS">
	<g>
		<g>
			<path style="fill:#733E2C;" d="M327.582,430.588c0,9.007-34.734,16.309-77.582,16.309s-77.583-7.302-77.583-16.309
				c0-9.006,34.735-16.308,77.583-16.308S327.582,421.582,327.582,430.588z"/>
			<g>
				<g>
					<path style="fill:#E3CDA4;" d="M171.227,189.287l-0.047-0.438C171.181,188.996,171.2,189.141,171.227,189.287z"/>
					<path style="fill:#9B713D;" d="M250,202.085c-42.658,0-77.396-5.691-78.773-12.799l25.868,238.409
						c0,8.745,23.686,15.833,52.904,15.833c29.218,0,52.903-7.088,52.903-15.833l25.868-238.409
						C327.395,196.395,292.657,202.085,250,202.085z"/>
					<path style="fill:#8A6235;" d="M174.614,220.494c16.385,2.973,44.034,4.926,75.386,4.926s59.001-1.953,75.386-4.926
						l2.113-19.472h-46.52c-9.511,0.684-19.979,1.063-30.979,1.063s-21.471-0.379-30.98-1.063h-46.518L174.614,220.494z"/>
					<g>
						<g>
							<path style="fill:#8A6235;" d="M299.866,199.098L273.524,441.88c17.411-2.592,29.379-7.969,29.379-14.185l25.868-238.409
								C328.006,193.242,316.907,196.756,299.866,199.098z"/>
						</g>
					</g>
					<path style="fill:#E3CDA4;" d="M328.771,189.287c0.029-0.146,0.047-0.291,0.047-0.438L328.771,189.287z"/>
				</g>
				<g>
					<path style="fill:#0B9991;" d="M171.227,189.287l-0.047-0.438C171.181,188.996,171.2,189.141,171.227,189.287z"/>
					<path style="fill:#0B9991;" d="M328.771,189.287c0.029-0.146,0.047-0.291,0.047-0.438L328.771,189.287z"/>
				</g>
				<g>
					<path style="fill:#0B9991;" d="M171.227,189.287l-0.047-0.438C171.181,188.996,171.2,189.141,171.227,189.287z"/>
					<path style="fill:#0B9991;" d="M328.771,189.287c0.029-0.146,0.047-0.291,0.047-0.438L328.771,189.287z"/>
				</g>
				<g>
					<path style="fill:#0B9991;" d="M171.227,189.287l-0.047-0.438C171.181,188.996,171.2,189.141,171.227,189.287z"/>
					<path style="fill:#0B9991;" d="M328.771,189.287c0.029-0.146,0.047-0.291,0.047-0.438L328.771,189.287z"/>
				</g>
				<path style="fill:#D3DFE6;" d="M341.079,203.054c0,6.203-40.778,11.231-91.079,11.231c-50.302,0-91.079-5.028-91.079-11.231
					v-13.167h182.158V203.054z"/>
				<path style="fill:#B5BFC5;" d="M288.706,195.097v18.124c30.945-1.794,52.373-5.672,52.373-10.168v-13.167h-51.316
					L288.706,195.097z"/>
				<path style="fill:#F1F1F2;" d="M341.079,189.886c0,6.203-40.778,11.231-91.079,11.231c-50.302,0-91.079-5.028-91.079-11.231
					c0-6.204,40.777-11.231,91.079-11.231C300.301,178.655,341.079,183.683,341.079,189.886z"/>
				<path style="fill:#9FADB6;" d="M311.844,181.642l-2.166,0.783l-28.574,14.518l7.602,3.111
					c30.946-1.794,52.374-5.673,52.374-10.169C341.079,186.628,329.82,183.693,311.844,181.642z"/>
				<path style="fill:#D3DFE6;" d="M331.835,187.607c0,5.573-36.639,10.091-81.835,10.091c-45.197,0-81.836-4.518-81.836-10.091
					l8.028-24.595h147.615L331.835,187.607z"/>
				<path style="fill:#B5BFC5;" d="M323.808,163.012h-53.78l11.076,33.931c29.77-1.51,50.732-5.121,50.732-9.336L323.808,163.012z"
					/>
				<path style="fill:#F1F1F2;" d="M323.808,163.012c0,5.026-33.045,9.101-73.808,9.101s-73.808-4.075-73.808-9.101
					c0-5.027,33.045-9.102,73.808-9.102S323.808,157.985,323.808,163.012z"/>
				<path style="fill:#9FADB6;" d="M272.462,171.683c1.832-0.072,3.633-0.153,5.401-0.241c0.049-0.003,0.097-0.005,0.145-0.008
					c0.425-0.021,0.844-0.042,1.263-0.064c0.011-0.001,0.02-0.002,0.03-0.002c1.743-0.093,3.451-0.193,5.121-0.303
					c0.042-0.003,0.084-0.005,0.128-0.008c0.395-0.025,0.787-0.052,1.178-0.079c0.036-0.003,0.07-0.005,0.107-0.007
					c1.621-0.111,3.205-0.229,4.749-0.355c0.053-0.004,0.103-0.008,0.155-0.013c0.358-0.029,0.714-0.06,1.064-0.089
					c0.059-0.005,0.116-0.01,0.174-0.015c1.485-0.127,2.93-0.26,4.333-0.399c0.073-0.008,0.147-0.015,0.221-0.022
					c0.307-0.03,0.612-0.062,0.914-0.093c0.09-0.009,0.178-0.018,0.268-0.027c0.303-0.032,0.604-0.064,0.904-0.096
					c0.052-0.006,0.105-0.012,0.156-0.017c0.966-0.105,1.91-0.213,2.83-0.324c0.085-0.01,0.174-0.021,0.261-0.031
					c0.26-0.032,0.518-0.064,0.775-0.096c0.111-0.014,0.221-0.029,0.331-0.042c0.249-0.032,0.497-0.063,0.742-0.095
					c0.105-0.014,0.21-0.027,0.314-0.042c0.804-0.106,1.585-0.215,2.346-0.326c0.115-0.017,0.231-0.034,0.346-0.051
					c0.209-0.03,0.415-0.063,0.62-0.093c0.13-0.02,0.259-0.04,0.387-0.059c0.199-0.031,0.398-0.062,0.594-0.093
					c0.129-0.021,0.256-0.041,0.385-0.062c0.192-0.031,0.387-0.062,0.577-0.094c0.113-0.019,0.22-0.038,0.33-0.056
					c0.344-0.058,0.684-0.117,1.018-0.176c0.137-0.024,0.273-0.048,0.407-0.072c0.165-0.029,0.325-0.06,0.487-0.089
					c0.139-0.026,0.273-0.052,0.41-0.077c0.154-0.03,0.309-0.06,0.461-0.089c0.14-0.028,0.279-0.055,0.418-0.083
					c0.143-0.029,0.287-0.058,0.428-0.087c0.164-0.033,0.325-0.067,0.485-0.1c0.198-0.042,0.392-0.084,0.584-0.126
					c0.162-0.035,0.322-0.07,0.48-0.107c0.122-0.027,0.242-0.055,0.361-0.082c0.139-0.033,0.274-0.064,0.409-0.096
					c0.116-0.027,0.232-0.056,0.347-0.083c0.137-0.034,0.272-0.067,0.405-0.101c0.107-0.026,0.212-0.053,0.315-0.08
					c0.159-0.041,0.314-0.082,0.468-0.124c0.083-0.021,0.168-0.044,0.249-0.067c0.205-0.056,0.403-0.112,0.6-0.169
					c0.084-0.024,0.164-0.049,0.248-0.074c0.129-0.038,0.256-0.077,0.38-0.115c0.086-0.027,0.171-0.053,0.255-0.08
					c0.118-0.038,0.237-0.076,0.352-0.115c0.079-0.025,0.156-0.052,0.233-0.077c0.131-0.045,0.259-0.09,0.385-0.135
					c0.055-0.02,0.108-0.038,0.159-0.057c0.172-0.063,0.34-0.126,0.5-0.19c0.053-0.02,0.102-0.041,0.151-0.061
					c0.112-0.045,0.223-0.09,0.327-0.136c0.061-0.024,0.116-0.05,0.174-0.075c0.095-0.042,0.188-0.085,0.28-0.127
					c0.053-0.025,0.107-0.05,0.156-0.074c0.098-0.048,0.191-0.095,0.283-0.144c0.036-0.02,0.077-0.039,0.113-0.058
					c0.124-0.066,0.242-0.133,0.352-0.2c0.029-0.017,0.053-0.033,0.078-0.049c0.084-0.051,0.166-0.104,0.243-0.156
					c0.036-0.024,0.069-0.048,0.103-0.072c0.065-0.046,0.126-0.091,0.185-0.138c0.031-0.025,0.063-0.05,0.094-0.075
					c0.06-0.049,0.114-0.098,0.167-0.147c0.021-0.021,0.046-0.042,0.067-0.062c0.07-0.069,0.135-0.139,0.193-0.209
					c0.008-0.011,0.015-0.021,0.023-0.032c0.047-0.06,0.092-0.12,0.129-0.18c0.017-0.024,0.028-0.047,0.041-0.07
					c0.028-0.048,0.054-0.097,0.075-0.145c0.011-0.025,0.022-0.051,0.032-0.076c0.018-0.049,0.032-0.1,0.045-0.148
					c0.006-0.023,0.014-0.045,0.017-0.068c0.013-0.072,0.023-0.143,0.023-0.215c0-5.027-33.045-9.102-73.808-9.102l22.457,17.773
					C272.457,171.684,272.459,171.683,272.462,171.683z"/>
				<g>
					<path style="fill:#9FADB6;" d="M183.9,163.012c3.233,0.87,8.734,1.954,17.978,2.95c13.302,1.434,30.392,2.223,48.122,2.223
						c17.729,0,34.819-0.79,48.122-2.223c9.243-0.996,14.744-2.08,17.977-2.95c-3.232-0.869-8.733-1.954-17.977-2.949
						c-13.303-1.434-30.393-2.224-48.122-2.224c-17.73,0-34.82,0.79-48.122,2.224C192.635,161.058,187.134,162.143,183.9,163.012z"
						/>
				</g>
				<path style="fill:#88949C;" d="M254.991,157.862v6.063h20.567v3.692c8.213-0.377,15.867-0.935,22.564-1.656
					c9.243-0.996,14.744-2.08,17.977-2.95c-3.232-0.869-8.733-1.954-17.977-2.949C286.073,158.764,270.915,157.996,254.991,157.862z
					"/>
				<path style="fill:#F1F1F2;" d="M250,161.768c-17.73,0-34.82,0.79-48.122,2.224c-2.993,0.322-5.59,0.654-7.848,0.985
					c2.258,0.331,4.854,0.663,7.848,0.985c13.302,1.434,30.392,2.223,48.122,2.223c17.729,0,34.819-0.79,48.122-2.223
					c2.992-0.323,5.59-0.654,7.848-0.985c-2.258-0.331-4.855-0.663-7.848-0.985C284.819,162.558,267.729,161.768,250,161.768z"/>
				<path style="fill:#392321;" d="M190.194,364.086c12.761,5.83,34.778,9.682,59.806,9.682c25.026,0,47.044-3.852,59.805-9.682
					l10.591-97.613c-5.812,10.062-35.116,17.714-70.395,17.714c-35.28,0-64.584-7.652-70.396-17.714L190.194,364.086z"/>
				<path style="fill:#B8C8D3;" d="M259.695,161.848l12.276,5.92c9.57-0.371,18.49-0.98,26.15-1.806
					c2.992-0.323,5.59-0.654,7.848-0.985c-2.258-0.331-4.855-0.663-7.848-0.985C287.266,162.821,273.885,162.081,259.695,161.848z"
					/>
				<path style="fill:#88949C;" d="M220.919,164.352c-3.446,0-6.769,0.153-9.354,0.432c-0.582,0.063-1.087,0.127-1.526,0.191
					c0.439,0.064,0.944,0.129,1.526,0.191c2.585,0.279,5.907,0.432,9.354,0.432c3.445,0,6.768-0.153,9.354-0.432
					c0.582-0.063,1.086-0.127,1.525-0.191c-0.439-0.064-0.943-0.129-1.525-0.191C227.686,164.506,224.364,164.352,220.919,164.352z"
					/>
				<path style="fill:#77502B;" d="M303.801,419.429c-2.728,1.505-6.223,2.92-10.369,4.16c-11.578,3.466-27.004,5.374-43.432,5.374
					c-16.43,0-31.854-1.908-43.433-5.374c-4.148-1.24-7.641-2.655-10.368-4.16l0.409,3.77c2.559,1.224,5.581,2.362,9.058,3.402
					c11.864,3.551,27.607,5.505,44.334,5.505c16.725,0,32.47-1.954,44.333-5.505c3.477-1.04,6.499-2.179,9.058-3.402
					L303.801,419.429z"/>
				<path style="fill:#664525;" d="M294.333,426.602c3.477-1.04,6.499-2.179,9.058-3.402l0.41-3.77
					c-2.728,1.505-6.223,2.92-10.369,4.16c-5.376,1.609-11.583,2.882-18.334,3.785l-0.348,3.214
					C281.966,429.657,288.602,428.316,294.333,426.602z"/>
			</g>
		</g>
		<g>
			<g>
				<g>
					<path style="fill:#D2BA96;" d="M220.477,145.403c-0.035-2.575,0.14-4.901,0.349-7.112c0.217-2.21,0.485-4.304,0.824-6.398
						c0.338-2.093,0.731-4.189,1.268-6.371c0.53-2.182,1.24-4.44,2.301-6.77c0.36-0.789,0.873-1.802,1.776-3.146
						c0.911-1.334,2.249-2.988,4.556-4.691c0.07-0.054,0.145-0.11,0.238-0.18l-0.001,0.001c0.006-0.001-0.011,0.006,0.011-0.005
						c2.119-1.122,4.891-3.15,6.871-5.393c1.005-1.093,1.778-2.251,2.307-3.101c0.247-0.443,0.447-0.8,0.585-1.047
						c0.123-0.258,0.191-0.401,0.191-0.401s0.064-0.137,0.182-0.387c0.116-0.25,0.291-0.607,0.454-1.087
						c0.373-0.93,0.745-2.312,0.936-3.9c0.148-1.593,0.061-3.37-0.289-4.997c-0.369-1.612-0.913-3.084-1.469-4.209
						c-1.213-2.509-2.639-4.447-4.003-6.02c-1.353-1.602-2.657-2.86-3.828-3.928c-0.577-0.553-1.141-1.019-1.666-1.453
						c-0.262-0.218-0.514-0.429-0.757-0.631c-0.249-0.202-0.447-0.386-0.77-0.626c-0.708-0.541-1.349-1.093-1.826-1.529
						c-1.969-1.793-3.537-3.537-4.635-5.148c-0.549-0.806-0.98-1.577-1.286-2.308c-0.29-0.731-0.456-1.41-0.497-2.113
						c-0.047-0.703,0.049-1.45,0.365-2.237c0.27-0.802,0.786-1.603,1.38-2.427c1.254-1.617,3.003-3.176,5.091-4.685
						c-2.549,0.361-4.933,0.946-7.174,2.12c-1.098,0.622-2.196,1.35-3.125,2.396c-0.955,1-1.744,2.322-2.168,3.81
						c-0.441,1.483-0.519,3.102-0.293,4.633c0.234,1.527,0.732,2.973,1.39,4.331c1.329,2.719,3.252,5.112,5.682,7.38
						c0.613,0.566,1.343,1.214,2.366,2.005c0.37,0.31,0.771,0.646,1.205,1.009c0.458,0.38,0.95,0.788,1.43,1.255
						c0.993,0.91,2.081,1.969,3.134,3.223c1.084,1.238,2.112,2.695,2.892,4.313c0.361,0.732,0.667,1.61,0.883,2.496
						c0.188,0.885,0.225,1.768,0.172,2.553c-0.103,0.779-0.259,1.471-0.46,1.961c-0.073,0.249-0.173,0.444-0.235,0.58
						c-0.062,0.136-0.095,0.211-0.095,0.211s-0.037,0.078-0.104,0.219c-0.08,0.139-0.195,0.341-0.339,0.591
						c-0.322,0.491-0.772,1.184-1.443,1.899c-1.288,1.455-3.359,2.979-4.829,3.757l-0.255,0.147
						c-0.092,0.054-0.179,0.105-0.265,0.156c-0.146,0.097-0.251,0.184-0.359,0.264c-0.078,0.059-0.15,0.114-0.221,0.167
						c-3.227,2.385-5.138,4.764-6.396,6.62c-1.254,1.876-1.933,3.264-2.408,4.323c-1.393,3.141-2.063,6.097-2.332,8.803
						c-0.272,2.712-0.175,5.194,0.142,7.549c0.316,2.356,0.872,4.588,1.619,6.811C218.3,140.907,219.234,143.136,220.477,145.403z"
						/>
				</g>
			</g>
		</g>
		<path id="SVGID_x5F_1_x5F_" style="fill:none;" d="M183.877,332.73c14.109,6.445,38.452,10.704,66.123,10.704
			c27.67,0,52.014-4.259,66.122-10.704"/>
		<text>		<textPath  xlink:href="#SVGID_x5F_1_x5F_" startOffset="0%">
<tspan  style="fill:#FBFFFA; font-family:'Lobster1.3'; font-size:42px;">Coffee</tspan>		</textPath>
</text>
		<path style="opacity:0.2;" d="M274.135,372.516c14.733-1.584,27.228-4.572,35.67-8.43l10.591-97.613
			c-3.784,6.551-17.53,12.08-36.397,15.142L274.135,372.516z"/>
	</g>
</g>
<g id="DESIGNED_BY_FREEPIK">
	<g>
		<g>
			<path style="fill:#FBFFFA;" d="M178.621,477.603c-0.258,0-0.449,0.086-0.593,0.258c-0.133,0.182-0.199,0.439-0.199,0.783v2.482
				c-0.315-0.343-0.641-0.602-0.975-0.773c-0.335-0.163-0.736-0.248-1.223-0.248c-0.831,0-1.509,0.295-2.025,0.878
				c-0.506,0.593-0.764,1.404-0.764,2.455c0,0.496,0.067,0.955,0.191,1.384c0.134,0.43,0.315,0.803,0.572,1.117
				c0.249,0.315,0.545,0.554,0.89,0.726c0.333,0.172,0.706,0.258,1.107,0.258c0.305,0,0.592-0.048,0.84-0.134
				c0.258-0.076,0.497-0.2,0.716-0.362c0.22-0.162,0.44-0.373,0.67-0.631v0.162c0,0.307,0.075,0.545,0.219,0.717
				c0.152,0.162,0.345,0.248,0.573,0.248c0.23,0,0.42-0.086,0.573-0.239c0.143-0.162,0.219-0.4,0.219-0.726v-7.401
				c0-0.315-0.065-0.554-0.209-0.716C179.069,477.68,178.879,477.603,178.621,477.603z M177.514,484.69
				c-0.144,0.314-0.335,0.554-0.583,0.706c-0.238,0.153-0.516,0.229-0.803,0.229c-0.296,0-0.563-0.086-0.812-0.249
				c-0.248-0.162-0.439-0.4-0.582-0.716c-0.134-0.324-0.211-0.706-0.211-1.165c0-0.43,0.067-0.811,0.201-1.137
				c0.133-0.324,0.325-0.572,0.564-0.744c0.239-0.173,0.515-0.268,0.821-0.268c0.296,0,0.572,0.086,0.821,0.257
				c0.248,0.173,0.439,0.421,0.583,0.736c0.152,0.324,0.219,0.707,0.219,1.155C177.732,483.973,177.666,484.364,177.514,484.69z"/>
			<path style="fill:#FBFFFA;" d="M186.252,483.734c0.238-0.124,0.362-0.401,0.362-0.822c0-0.458-0.124-0.898-0.354-1.336
				c-0.229-0.44-0.583-0.803-1.061-1.079c-0.467-0.277-1.031-0.411-1.681-0.411c-0.505,0-0.964,0.076-1.374,0.238
				c-0.421,0.162-0.765,0.401-1.051,0.697c-0.277,0.307-0.497,0.669-0.64,1.098c-0.152,0.421-0.229,0.88-0.229,1.376
				c0,1.05,0.306,1.892,0.897,2.502c0.602,0.611,1.441,0.927,2.521,0.927c0.468,0,0.889-0.067,1.251-0.191
				c0.363-0.124,0.659-0.277,0.898-0.458c0.238-0.191,0.419-0.382,0.544-0.583c0.114-0.21,0.172-0.381,0.172-0.534
				c0-0.173-0.048-0.306-0.152-0.401c-0.115-0.096-0.248-0.144-0.421-0.144c-0.162,0-0.286,0.038-0.372,0.115
				c-0.211,0.19-0.383,0.354-0.507,0.468c-0.133,0.115-0.276,0.22-0.43,0.324c-0.162,0.096-0.315,0.172-0.487,0.22
				c-0.162,0.049-0.343,0.067-0.544,0.067c-0.307,0-0.573-0.077-0.821-0.22c-0.248-0.144-0.449-0.363-0.602-0.659
				c-0.152-0.286-0.229-0.631-0.229-1.003h3.286C185.669,483.925,186.004,483.858,186.252,483.734z M181.944,482.97
				c0.058-0.563,0.22-0.993,0.487-1.289c0.268-0.287,0.61-0.43,1.031-0.43c0.439,0,0.793,0.143,1.061,0.43
				c0.267,0.287,0.42,0.716,0.468,1.289H181.944z"/>
			<path style="fill:#FBFFFA;" d="M191.867,483.285c-0.324-0.182-0.755-0.335-1.271-0.459c-0.439-0.104-0.783-0.2-1.031-0.268
				c-0.258-0.075-0.449-0.171-0.602-0.286c-0.143-0.104-0.22-0.258-0.22-0.43c0-0.19,0.096-0.353,0.296-0.487
				c0.21-0.124,0.458-0.19,0.764-0.19c0.297,0,0.526,0.048,0.698,0.152c0.171,0.096,0.324,0.229,0.448,0.392
				c0.153,0.191,0.296,0.345,0.411,0.439c0.123,0.096,0.267,0.153,0.438,0.153c0.239,0,0.43-0.067,0.554-0.191
				c0.135-0.124,0.191-0.277,0.191-0.469c0-0.181-0.057-0.362-0.182-0.543c-0.114-0.183-0.296-0.354-0.524-0.507
				c-0.23-0.153-0.517-0.268-0.869-0.362c-0.344-0.086-0.735-0.134-1.166-0.134c-0.554,0-1.031,0.086-1.423,0.267
				c-0.392,0.182-0.688,0.421-0.888,0.717c-0.201,0.296-0.296,0.621-0.296,0.955c0,0.373,0.105,0.697,0.324,0.955
				c0.22,0.258,0.507,0.468,0.869,0.621c0.363,0.152,0.831,0.306,1.413,0.448c0.507,0.124,0.879,0.258,1.099,0.392
				c0.229,0.134,0.334,0.354,0.334,0.64c0,0.201-0.105,0.363-0.315,0.516c-0.219,0.153-0.496,0.229-0.83,0.229
				c-0.411,0-0.745-0.076-0.983-0.22c-0.239-0.153-0.439-0.372-0.621-0.678c-0.076-0.153-0.172-0.277-0.268-0.363
				c-0.096-0.086-0.23-0.124-0.401-0.124c-0.199,0-0.372,0.067-0.496,0.191c-0.134,0.133-0.2,0.296-0.2,0.478
				c0,0.276,0.105,0.554,0.305,0.831c0.211,0.276,0.526,0.505,0.955,0.696c0.431,0.182,0.945,0.277,1.548,0.277
				c0.63,0,1.164-0.086,1.604-0.258c0.448-0.173,0.783-0.421,1.003-0.754c0.229-0.325,0.334-0.727,0.334-1.185
				c0-0.307-0.076-0.583-0.249-0.822C192.45,483.667,192.201,483.457,191.867,483.285z"/>
			<path style="fill:#FBFFFA;" d="M194.589,477.67c-0.229,0-0.42,0.076-0.592,0.239c-0.172,0.151-0.258,0.343-0.258,0.581
				c0,0.269,0.086,0.469,0.249,0.612c0.171,0.143,0.372,0.21,0.601,0.21c0.229,0,0.42-0.067,0.583-0.21
				c0.162-0.153,0.248-0.354,0.248-0.612c0-0.267-0.086-0.468-0.258-0.61C195,477.746,194.809,477.67,194.589,477.67z"/>
			<path style="fill:#FBFFFA;" d="M194.57,480.096c-0.249,0-0.449,0.086-0.602,0.258c-0.153,0.162-0.23,0.41-0.23,0.745v4.803
				c0,0.325,0.076,0.573,0.23,0.755c0.152,0.172,0.352,0.267,0.602,0.267c0.248,0,0.449-0.086,0.611-0.258
				c0.162-0.173,0.238-0.43,0.238-0.765v-4.851c0-0.297-0.076-0.535-0.238-0.697C195.02,480.182,194.818,480.096,194.57,480.096z"/>
			<path style="fill:#FBFFFA;" d="M201.962,480.096c-0.22,0-0.41,0.086-0.554,0.239c-0.144,0.162-0.211,0.391-0.211,0.678v0.229
				c-0.296-0.391-0.62-0.678-0.974-0.859c-0.344-0.182-0.755-0.276-1.232-0.276c-0.4,0-0.764,0.076-1.098,0.219
				c-0.335,0.135-0.621,0.344-0.878,0.631c-0.249,0.276-0.45,0.621-0.583,1.021c-0.144,0.411-0.21,0.859-0.21,1.365
				c0,0.679,0.113,1.271,0.343,1.786c0.221,0.516,0.545,0.917,0.965,1.203c0.42,0.297,0.907,0.439,1.472,0.439
				c0.467,0,0.868-0.095,1.212-0.286c0.334-0.191,0.631-0.468,0.889-0.821c-0.01,0.544-0.02,0.945-0.039,1.193
				c-0.009,0.249-0.065,0.478-0.162,0.697c-0.095,0.221-0.268,0.383-0.506,0.507c-0.239,0.124-0.573,0.181-1.013,0.181
				c-0.209,0-0.4-0.019-0.563-0.057c-0.163-0.038-0.307-0.096-0.421-0.182c-0.114-0.077-0.23-0.172-0.325-0.286
				c-0.095-0.115-0.189-0.229-0.276-0.334c-0.182-0.221-0.401-0.325-0.65-0.325c-0.191,0-0.362,0.066-0.497,0.19
				c-0.143,0.135-0.21,0.297-0.21,0.507c0,0.268,0.124,0.524,0.363,0.783c0.248,0.258,0.603,0.467,1.05,0.631
				c0.459,0.162,0.975,0.238,1.558,0.238c0.631,0,1.155-0.058,1.576-0.191c0.429-0.124,0.773-0.315,1.03-0.583
				c0.268-0.257,0.459-0.592,0.574-0.993c0.113-0.4,0.181-0.878,0.181-1.441v-4.87c0-0.402-0.057-0.707-0.162-0.918
				C202.507,480.2,202.286,480.096,201.962,480.096z M200.901,484.622c-0.151,0.296-0.354,0.525-0.602,0.669
				c-0.248,0.152-0.516,0.229-0.793,0.229c-0.468,0-0.859-0.171-1.155-0.524c-0.296-0.345-0.439-0.86-0.439-1.538
				c0-0.678,0.144-1.194,0.431-1.557c0.286-0.362,0.668-0.554,1.155-0.554c0.486,0,0.888,0.191,1.185,0.572
				c0.306,0.383,0.458,0.917,0.458,1.605C201.141,483.954,201.055,484.316,200.901,484.622z"/>
			<path style="fill:#FBFFFA;" d="M209.584,481.203c-0.173-0.353-0.432-0.62-0.784-0.821c-0.344-0.191-0.745-0.286-1.185-0.286
				c-0.458,0-0.859,0.095-1.212,0.277c-0.096,0.047-0.182,0.105-0.278,0.171c-0.238,0.172-0.468,0.401-0.688,0.688v-0.21
				c0-0.2-0.038-0.373-0.105-0.506c-0.077-0.143-0.172-0.248-0.286-0.315c-0.125-0.066-0.258-0.104-0.401-0.104
				c-0.239,0-0.431,0.075-0.573,0.239c-0.144,0.151-0.21,0.391-0.21,0.716v4.851c0,0.325,0.077,0.573,0.239,0.755
				c0.152,0.172,0.353,0.267,0.591,0.267c0.248,0,0.459-0.086,0.612-0.258c0.162-0.173,0.238-0.43,0.238-0.765v-2.101
				c0-0.688,0.038-1.155,0.124-1.404c0.115-0.315,0.296-0.554,0.535-0.734c0.248-0.183,0.525-0.269,0.821-0.269
				c0.458,0,0.764,0.145,0.917,0.439c0.152,0.297,0.229,0.717,0.229,1.27v2.798c0,0.325,0.086,0.573,0.238,0.755
				c0.153,0.172,0.353,0.267,0.611,0.267c0.238,0,0.439-0.086,0.592-0.258c0.162-0.173,0.239-0.43,0.239-0.765v-3.122
				c0-0.372-0.019-0.679-0.059-0.917C209.765,481.633,209.688,481.403,209.584,481.203z"/>
			<path style="fill:#FBFFFA;" d="M216.67,483.734c0.238-0.124,0.361-0.401,0.361-0.822c0-0.458-0.113-0.898-0.353-1.336
				c-0.23-0.44-0.583-0.803-1.051-1.079c-0.467-0.277-1.03-0.411-1.689-0.411c-0.507,0-0.966,0.076-1.376,0.238
				c-0.41,0.162-0.764,0.401-1.041,0.697c-0.286,0.307-0.506,0.669-0.649,1.098c-0.144,0.421-0.22,0.88-0.22,1.376
				c0,1.05,0.297,1.892,0.898,2.502c0.592,0.611,1.433,0.927,2.512,0.927c0.468,0,0.888-0.067,1.251-0.191
				c0.01,0,0.028-0.01,0.037-0.01c0.345-0.124,0.631-0.276,0.869-0.448c0.239-0.191,0.411-0.382,0.536-0.583
				c0.113-0.21,0.181-0.381,0.181-0.534c0-0.173-0.058-0.306-0.162-0.401c-0.105-0.096-0.248-0.144-0.42-0.144
				c-0.162,0-0.278,0.038-0.363,0.115c-0.21,0.19-0.382,0.354-0.516,0.468c-0.134,0.115-0.277,0.22-0.431,0.324
				c-0.152,0.096-0.315,0.172-0.477,0.22c-0.162,0.049-0.334,0.067-0.524,0.067h-0.01c-0.01,0-0.01,0-0.02,0
				c-0.296,0-0.573-0.077-0.821-0.22c-0.248-0.144-0.448-0.363-0.592-0.659c-0.029-0.057-0.057-0.105-0.076-0.162v-0.01
				c-0.105-0.249-0.152-0.535-0.162-0.831h3.285C216.087,483.925,216.431,483.858,216.67,483.734z M212.362,482.97
				c0.057-0.563,0.219-0.993,0.497-1.289c0.267-0.287,0.61-0.43,1.021-0.43c0.438,0,0.792,0.143,1.06,0.43
				c0.277,0.287,0.43,0.716,0.469,1.289H212.362z"/>
			<path style="fill:#FBFFFA;" d="M223.288,477.603c-0.259,0-0.459,0.086-0.593,0.258c-0.133,0.182-0.21,0.439-0.21,0.783v2.482
				c-0.314-0.343-0.63-0.602-0.964-0.773c-0.335-0.163-0.746-0.248-1.224-0.248c-0.84,0-1.509,0.295-2.025,0.878
				c-0.516,0.593-0.773,1.404-0.773,2.455c0,0.496,0.067,0.955,0.201,1.384c0.123,0.43,0.314,0.803,0.563,1.117
				c0.248,0.315,0.544,0.554,0.888,0.726c0.344,0.172,0.717,0.258,1.117,0.258c0.306,0,0.582-0.048,0.841-0.134
				c0.258-0.076,0.497-0.2,0.716-0.362c0.22-0.162,0.439-0.373,0.659-0.631v0.162c0,0.307,0.077,0.545,0.229,0.717
				c0.152,0.162,0.334,0.248,0.573,0.248c0.229,0,0.419-0.086,0.563-0.239c0.153-0.162,0.229-0.4,0.229-0.726v-7.401
				c0-0.315-0.076-0.554-0.21-0.716C223.736,477.68,223.536,477.603,223.288,477.603z M222.18,484.69
				c-0.144,0.314-0.344,0.554-0.583,0.706c-0.248,0.153-0.516,0.229-0.811,0.229c-0.286,0-0.554-0.086-0.803-0.249
				c-0.248-0.162-0.438-0.4-0.582-0.716c-0.144-0.324-0.21-0.706-0.21-1.165c0-0.43,0.066-0.811,0.201-1.137
				c0.133-0.324,0.314-0.572,0.563-0.744c0.239-0.173,0.517-0.268,0.821-0.268c0.297,0,0.564,0.086,0.813,0.257
				c0.248,0.173,0.448,0.421,0.592,0.736c0.144,0.324,0.22,0.707,0.22,1.155C222.399,483.973,222.323,484.364,222.18,484.69z"/>
			<path style="fill:#FBFFFA;" d="M233.974,481.652c-0.229-0.497-0.554-0.879-0.974-1.146c-0.42-0.268-0.907-0.4-1.471-0.4
				c-0.478,0-0.889,0.095-1.213,0.267c-0.334,0.171-0.649,0.419-0.965,0.753v-2.568c0-0.306-0.076-0.545-0.21-0.707
				c-0.144-0.171-0.344-0.248-0.602-0.248c-0.238,0-0.43,0.086-0.572,0.258c-0.135,0.173-0.201,0.43-0.201,0.773v7.325
				c0,0.315,0.066,0.555,0.211,0.717c0.143,0.162,0.324,0.248,0.563,0.248c0.239,0,0.43-0.086,0.582-0.248
				c0.153-0.162,0.229-0.401,0.229-0.717v-0.162c0.182,0.21,0.334,0.372,0.439,0.478c0.115,0.104,0.249,0.21,0.411,0.315
				c0.162,0.095,0.353,0.181,0.582,0.238c0.229,0.058,0.469,0.096,0.726,0.096c0.421,0,0.813-0.086,1.166-0.258
				c0.343-0.173,0.649-0.411,0.888-0.726c0.248-0.305,0.439-0.678,0.564-1.098c0.134-0.43,0.191-0.888,0.191-1.403
				C234.318,482.75,234.203,482.158,233.974,481.652z M232.179,485.071c-0.305,0.372-0.669,0.554-1.089,0.554
				c-0.496,0-0.897-0.182-1.203-0.544c-0.306-0.354-0.458-0.869-0.458-1.538c0-0.449,0.076-0.85,0.22-1.175
				c0.143-0.334,0.334-0.582,0.582-0.754c0.257-0.173,0.535-0.268,0.859-0.268c0.307,0,0.582,0.095,0.812,0.268
				c0.239,0.172,0.421,0.42,0.545,0.734c0.124,0.325,0.19,0.707,0.19,1.146C232.637,484.183,232.484,484.708,232.179,485.071z"/>
			<path style="fill:#FBFFFA;" d="M240.191,480.2c-0.114-0.066-0.239-0.104-0.362-0.104c-0.182,0-0.315,0.028-0.411,0.095
				c-0.097,0.058-0.191,0.183-0.277,0.354c-0.086,0.182-0.181,0.42-0.286,0.735l-1.347,3.84l-1.422-4.136
				c-0.097-0.286-0.202-0.506-0.326-0.659c-0.124-0.153-0.305-0.228-0.544-0.228c-0.143,0-0.277,0.038-0.4,0.114
				c-0.135,0.066-0.239,0.172-0.306,0.296c-0.077,0.115-0.115,0.248-0.115,0.392c0,0.143,0.066,0.354,0.191,0.659l2.063,5.195
				l-0.152,0.382c-0.115,0.268-0.211,0.478-0.307,0.621c-0.085,0.143-0.181,0.238-0.296,0.295c-0.105,0.059-0.258,0.087-0.449,0.087
				c-0.085,0-0.171-0.01-0.276-0.038c-0.086-0.02-0.182-0.038-0.267-0.038c-0.23,0-0.401,0.057-0.517,0.162
				c-0.124,0.104-0.182,0.248-0.182,0.439c0,0.286,0.124,0.477,0.373,0.592c0.248,0.104,0.611,0.153,1.107,0.153
				c0.497,0,0.898-0.076,1.193-0.229c0.307-0.153,0.545-0.373,0.717-0.659c0.182-0.286,0.372-0.678,0.554-1.185l2.196-5.731
				c0.049-0.151,0.097-0.295,0.135-0.438c0.037-0.143,0.057-0.258,0.076-0.334c0-0.124-0.029-0.248-0.096-0.363
				C240.393,480.353,240.307,480.268,240.191,480.2z"/>
			<path style="fill:#FBFFFA;" d="M263.016,479.075c0.09-0.177,0.283-0.269,0.586-0.269c0.11,0,0.249,0.015,0.403,0.036
				c0.161,0.026,0.277,0.039,0.341,0.039c0.14,0,0.262-0.057,0.361-0.166c0.104-0.11,0.156-0.244,0.156-0.398
				c0-0.483-0.488-0.721-1.472-0.721c-0.553,0-0.988,0.07-1.306,0.211c-0.317,0.142-0.545,0.367-0.678,0.677
				c-0.133,0.31-0.197,0.727-0.197,1.253v0.504h-0.4c-0.563,0-0.844,0.199-0.844,0.603c0,0.18,0.067,0.328,0.203,0.439
				c0.137,0.115,0.327,0.17,0.578,0.17h0.463v4.446c0,0.331,0.077,0.583,0.235,0.757c0.16,0.176,0.356,0.263,0.595,0.263
				c0.251,0,0.453-0.087,0.609-0.263c0.16-0.174,0.239-0.426,0.239-0.757v-4.446h0.409c0.3,0,0.535-0.037,0.704-0.111
				c0.173-0.073,0.255-0.249,0.255-0.521c0-0.388-0.317-0.58-0.959-0.58h-0.409v-0.399
				C262.89,479.508,262.934,479.254,263.016,479.075z"/>
			<path style="fill:#FBFFFA;" d="M269.235,481.06c0-0.29-0.166-0.525-0.499-0.703c-0.332-0.176-0.671-0.264-1.026-0.264
				c-0.354,0-0.633,0.088-0.848,0.264c-0.21,0.178-0.415,0.437-0.613,0.783c-0.016-0.347-0.083-0.605-0.205-0.783
				c-0.124-0.176-0.324-0.264-0.604-0.264c-0.545,0-0.816,0.378-0.816,1.133v4.674c0,0.336,0.08,0.59,0.233,0.76
				c0.154,0.175,0.353,0.26,0.6,0.26c0.245,0,0.446-0.084,0.607-0.256c0.155-0.169,0.241-0.424,0.241-0.764v-1.402
				c0-0.504,0.015-0.932,0.047-1.282c0.034-0.35,0.092-0.654,0.176-0.909c0.087-0.252,0.208-0.441,0.365-0.574
				c0.154-0.127,0.356-0.193,0.604-0.193c0.177,0,0.387,0.039,0.622,0.112c0.234,0.075,0.385,0.116,0.449,0.116
				c0.163,0,0.314-0.065,0.457-0.201C269.163,481.435,269.235,481.264,269.235,481.06z"/>
			<path style="fill:#FBFFFA;" d="M275.04,483.734c0.238-0.134,0.362-0.401,0.362-0.822c0-0.458-0.114-0.898-0.353-1.346
				c-0.229-0.44-0.582-0.793-1.05-1.069c-0.468-0.277-1.031-0.411-1.69-0.411c-0.506,0-0.965,0.076-1.375,0.238
				c-0.41,0.162-0.764,0.392-1.041,0.697c-0.286,0.307-0.507,0.669-0.649,1.089c-0.152,0.43-0.22,0.889-0.22,1.385
				c0,1.05,0.296,1.892,0.898,2.502c0.591,0.611,1.433,0.917,2.511,0.917c0.468,0,0.889-0.058,1.251-0.182
				c0.363-0.124,0.669-0.277,0.907-0.458c0.239-0.191,0.421-0.382,0.545-0.592c0.115-0.201,0.172-0.372,0.172-0.525
				c0-0.173-0.057-0.306-0.162-0.401s-0.248-0.144-0.421-0.144c-0.153,0-0.277,0.038-0.363,0.115
				c-0.209,0.19-0.381,0.354-0.516,0.458c-0.133,0.125-0.267,0.23-0.429,0.325c-0.153,0.104-0.315,0.181-0.478,0.219
				c-0.173,0.059-0.354,0.077-0.554,0.077c-0.297,0-0.574-0.077-0.822-0.22c-0.248-0.152-0.448-0.373-0.602-0.659
				c-0.143-0.286-0.22-0.631-0.229-1.012h3.286C274.458,483.916,274.801,483.858,275.04,483.734z M270.732,482.961
				c0.059-0.564,0.221-0.984,0.497-1.28c0.268-0.287,0.611-0.43,1.022-0.43c0.45,0,0.793,0.143,1.07,0.43
				c0.268,0.276,0.42,0.707,0.459,1.28H270.732z"/>
			<path style="fill:#FBFFFA;" d="M282.021,483.734c0.239-0.134,0.363-0.401,0.363-0.822c0-0.458-0.115-0.898-0.354-1.346
				c-0.229-0.44-0.583-0.793-1.051-1.069c-0.478-0.277-1.031-0.411-1.69-0.411c-0.507,0-0.965,0.076-1.376,0.238
				c-0.42,0.162-0.764,0.392-1.041,0.697c-0.286,0.307-0.505,0.669-0.648,1.089c-0.153,0.43-0.229,0.889-0.229,1.385
				c0,1.05,0.306,1.892,0.907,2.502c0.592,0.611,1.433,0.917,2.512,0.917c0.468,0,0.888-0.058,1.251-0.182
				c0.363-0.124,0.668-0.277,0.907-0.458c0.238-0.191,0.421-0.382,0.535-0.592c0.124-0.201,0.172-0.372,0.172-0.525
				c0-0.173-0.048-0.306-0.153-0.401c-0.105-0.096-0.248-0.144-0.42-0.144c-0.152,0-0.276,0.038-0.362,0.115
				c-0.211,0.19-0.383,0.354-0.516,0.458c-0.135,0.125-0.268,0.23-0.431,0.325c-0.152,0.104-0.314,0.181-0.486,0.219
				c-0.162,0.059-0.345,0.077-0.545,0.077c-0.296,0-0.572-0.077-0.821-0.22c-0.248-0.152-0.449-0.373-0.592-0.659
				c-0.152-0.286-0.229-0.631-0.238-1.012h3.284C281.439,483.916,281.783,483.858,282.021,483.734z M277.715,482.961
				c0.057-0.564,0.219-0.984,0.486-1.28c0.277-0.287,0.62-0.43,1.032-0.43c0.439,0,0.792,0.143,1.068,0.43
				c0.268,0.276,0.421,0.707,0.459,1.28H277.715z"/>
			<path style="fill:#FBFFFA;" d="M289.279,481.671c-0.257-0.506-0.602-0.897-1.031-1.165c-0.439-0.268-0.917-0.4-1.433-0.4
				c-0.43,0-0.811,0.095-1.147,0.276c-0.343,0.182-0.678,0.469-0.993,0.859v-0.201c0-0.314-0.066-0.543-0.219-0.705
				c-0.153-0.164-0.345-0.239-0.583-0.239c-0.239,0-0.43,0.075-0.573,0.228c-0.144,0.162-0.21,0.401-0.21,0.727v7.238
				c0,0.373,0.058,0.641,0.152,0.841c0.105,0.182,0.315,0.277,0.631,0.277c0.535,0,0.802-0.373,0.802-1.108v-2.511
				c0.173,0.209,0.345,0.391,0.526,0.543c0.133,0.115,0.267,0.211,0.41,0.297c0.324,0.191,0.726,0.286,1.203,0.286
				c0.401,0,0.774-0.076,1.117-0.229c0.354-0.162,0.65-0.392,0.907-0.678c0.248-0.296,0.449-0.658,0.602-1.089
				c0.144-0.43,0.211-0.907,0.211-1.423c0-0.067,0-0.133-0.01-0.2C289.624,482.674,289.499,482.14,289.279,481.671z M287.79,484.536
				c-0.011,0.038-0.02,0.076-0.038,0.114c-0.144,0.325-0.325,0.564-0.574,0.726c-0.229,0.163-0.496,0.249-0.772,0.249
				c-0.059,0-0.115,0-0.162-0.02c-0.401-0.028-0.736-0.219-1.014-0.544c-0.314-0.363-0.467-0.889-0.467-1.557
				c0-0.707,0.152-1.242,0.478-1.614c0.314-0.362,0.706-0.544,1.165-0.544c0.295,0,0.563,0.086,0.802,0.257
				c0.239,0.173,0.421,0.411,0.554,0.736c0.144,0.315,0.21,0.696,0.21,1.137C287.971,483.887,287.914,484.24,287.79,484.536z"/>
			<path style="fill:#FBFFFA;" d="M291.323,480.096c-0.238,0-0.439,0.075-0.592,0.248c-0.153,0.172-0.238,0.42-0.238,0.755v4.803
				c0,0.325,0.085,0.573,0.238,0.755c0.152,0.172,0.354,0.258,0.592,0.258c0.249,0,0.449-0.076,0.611-0.258
				c0.162-0.172,0.239-0.42,0.239-0.755v-4.851c0-0.306-0.077-0.535-0.239-0.707C291.772,480.171,291.572,480.096,291.323,480.096z"
				/>
			<path style="fill:#FBFFFA;" d="M291.343,477.67c-0.221,0-0.421,0.076-0.593,0.229c-0.172,0.153-0.257,0.354-0.257,0.592
				c0,0.259,0.085,0.459,0.257,0.602c0.162,0.144,0.363,0.221,0.593,0.221c0.229,0,0.419-0.077,0.592-0.221
				c0.162-0.143,0.239-0.343,0.239-0.602c0-0.267-0.086-0.478-0.249-0.61C291.753,477.736,291.563,477.67,291.343,477.67z"/>
			<path style="fill:#FBFFFA;" d="M298.948,485.303l-1.721-2.708l0.891-0.816c0.454-0.409,0.683-0.739,0.683-0.985
				c0-0.198-0.071-0.367-0.207-0.5c-0.144-0.133-0.317-0.2-0.528-0.2c-0.175,0-0.323,0.045-0.445,0.136
				c-0.126,0.088-0.302,0.26-0.535,0.503l-1.888,1.982v-4.073c0-0.342-0.078-0.603-0.229-0.777
				c-0.153-0.179-0.356-0.267-0.615-0.267c-0.265,0-0.473,0.095-0.617,0.292c-0.14,0.196-0.214,0.479-0.214,0.85v7.161
				c0,0.336,0.076,0.59,0.223,0.76c0.147,0.175,0.351,0.26,0.608,0.26c0.221,0,0.42-0.087,0.587-0.263
				c0.171-0.174,0.257-0.421,0.257-0.744v-1.337l0.911-0.859l1.478,2.437c0.188,0.288,0.341,0.488,0.451,0.601
				c0.109,0.114,0.271,0.166,0.475,0.166c0.234,0,0.428-0.075,0.573-0.229c0.146-0.155,0.221-0.363,0.221-0.632
				c0-0.091-0.029-0.195-0.084-0.298C299.167,485.654,299.073,485.506,298.948,485.303z"/>
			<path style="fill:#FBFFFA;" d="M301.219,485.068c-0.259,0-0.475,0.09-0.652,0.271c-0.177,0.18-0.266,0.395-0.266,0.645
				c0,0.297,0.094,0.528,0.277,0.69c0.186,0.164,0.403,0.246,0.656,0.246c0.245,0,0.46-0.082,0.645-0.25
				c0.182-0.163,0.273-0.393,0.273-0.686c0-0.253-0.092-0.47-0.273-0.648C301.694,485.158,301.476,485.068,301.219,485.068z"/>
			<path style="fill:#FBFFFA;" d="M308.868,484.108c-0.172,0-0.318,0.056-0.437,0.162c-0.118,0.107-0.227,0.254-0.33,0.441
				c-0.184,0.321-0.396,0.559-0.639,0.714c-0.238,0.155-0.526,0.233-0.864,0.233c-0.248,0-0.479-0.047-0.688-0.146
				c-0.209-0.098-0.386-0.238-0.535-0.424c-0.148-0.187-0.261-0.412-0.337-0.676c-0.077-0.264-0.118-0.556-0.118-0.872
				c0-0.67,0.153-1.203,0.455-1.589c0.304-0.388,0.707-0.581,1.2-0.581c0.345,0,0.628,0.078,0.85,0.234
				c0.227,0.154,0.439,0.389,0.645,0.699c0.113,0.163,0.217,0.277,0.31,0.351c0.094,0.07,0.209,0.107,0.351,0.107
				c0.209,0,0.391-0.07,0.543-0.21c0.148-0.14,0.222-0.311,0.222-0.51c0-0.197-0.065-0.411-0.198-0.639
				c-0.133-0.226-0.326-0.439-0.576-0.642c-0.254-0.2-0.56-0.366-0.923-0.491c-0.364-0.128-0.763-0.191-1.198-0.191
				c-0.698,0-1.305,0.144-1.809,0.434c-0.504,0.289-0.89,0.698-1.153,1.226c-0.268,0.529-0.4,1.138-0.4,1.828
				c0,1.017,0.291,1.827,0.871,2.434c0.582,0.602,1.393,0.907,2.433,0.907c0.484,0,0.925-0.068,1.313-0.199
				c0.391-0.13,0.712-0.305,0.968-0.52c0.257-0.215,0.449-0.44,0.573-0.68c0.126-0.237,0.189-0.462,0.189-0.67
				c0-0.174-0.069-0.342-0.205-0.498C309.243,484.189,309.074,484.108,308.868,484.108z"/>
			<path style="fill:#FBFFFA;" d="M315.925,481.04c-0.297-0.305-0.65-0.534-1.061-0.696c-0.42-0.173-0.878-0.248-1.385-0.248
				c-0.506,0-0.964,0.075-1.375,0.239c-0.411,0.162-0.765,0.391-1.061,0.696c-0.286,0.297-0.516,0.659-0.668,1.079
				c-0.153,0.421-0.23,0.889-0.23,1.395c0,0.506,0.076,0.964,0.22,1.385c0.162,0.41,0.383,0.773,0.688,1.079
				c0.286,0.306,0.65,0.545,1.051,0.707c0.401,0.162,0.859,0.248,1.375,0.248c0.507,0,0.965-0.086,1.385-0.248
				c0.401-0.162,0.755-0.392,1.052-0.698c0.295-0.305,0.524-0.667,0.677-1.088c0.153-0.421,0.229-0.888,0.229-1.385
				c0-0.506-0.076-0.965-0.229-1.386C316.44,481.709,316.221,481.347,315.925,481.04z M314.693,485.09
				c-0.307,0.392-0.707,0.583-1.214,0.583c-0.343,0-0.631-0.086-0.879-0.258c-0.248-0.182-0.439-0.431-0.572-0.765
				c-0.134-0.324-0.2-0.707-0.2-1.145c0-0.44,0.066-0.831,0.2-1.165c0.134-0.325,0.324-0.583,0.582-0.755
				c0.249-0.162,0.535-0.248,0.869-0.248c0.507,0,0.907,0.191,1.214,0.573c0.295,0.382,0.448,0.916,0.448,1.595
				C315.142,484.183,314.988,484.708,314.693,485.09z"/>
			<path style="fill:#FBFFFA;" d="M326.944,481.149c-0.165-0.334-0.413-0.593-0.743-0.773c-0.331-0.179-0.73-0.271-1.187-0.271
				c-0.395,0-0.753,0.083-1.076,0.25c-0.324,0.166-0.628,0.421-0.912,0.764c-0.199-0.338-0.448-0.594-0.752-0.763
				c-0.302-0.166-0.664-0.251-1.086-0.251c-0.408,0-0.773,0.081-1.108,0.25c-0.329,0.161-0.641,0.417-0.935,0.764v-0.159
				c0-0.27-0.076-0.482-0.229-0.637c-0.156-0.15-0.346-0.23-0.577-0.23c-0.235,0-0.428,0.081-0.576,0.247
				c-0.145,0.162-0.217,0.403-0.217,0.72v4.802c0,0.348,0.081,0.612,0.243,0.792c0.162,0.177,0.37,0.267,0.626,0.267
				c0.258,0,0.464-0.09,0.625-0.267c0.154-0.18,0.234-0.444,0.234-0.792v-2.267c0-0.708,0.089-1.249,0.263-1.622
				c0.175-0.383,0.534-0.57,1.085-0.57c0.273,0,0.476,0.074,0.602,0.228c0.126,0.147,0.205,0.343,0.234,0.571
				c0.027,0.234,0.041,0.563,0.041,0.986v2.674c0,0.354,0.08,0.615,0.241,0.795c0.152,0.176,0.36,0.264,0.615,0.264
				c0.263,0,0.471-0.088,0.633-0.264c0.161-0.18,0.239-0.441,0.239-0.795v-2.23c0-0.719,0.064-1.221,0.184-1.504
				c0.112-0.217,0.268-0.398,0.467-0.526c0.198-0.129,0.408-0.198,0.63-0.198c0.273,0,0.479,0.074,0.617,0.222
				c0.133,0.147,0.217,0.33,0.248,0.549c0.028,0.216,0.044,0.505,0.044,0.865v2.823c0,0.348,0.081,0.612,0.244,0.792
				c0.162,0.177,0.368,0.267,0.624,0.267c0.262,0,0.475-0.088,0.634-0.264c0.158-0.18,0.237-0.441,0.237-0.795v-3.276
				C327.157,481.933,327.087,481.455,326.944,481.149z"/>
			<path style="fill:#FBFFFA;" d="M248.734,477.142c0.641-0.213,1.195-0.342,1.699-0.397c0.492-0.053,0.863-0.075,1.166-0.075
				c0.324,0,0.564,0.025,0.838,0.072l0.078-0.493c0,0-0.758-0.233-1.754-0.152l-0.078-0.269c0.309-0.065,0.541-0.341,0.541-0.67
				c0-0.377-0.307-0.682-0.684-0.682c-0.377,0-0.684,0.305-0.684,0.682c0,0.329,0.232,0.604,0.542,0.67l0.086,0.299
				c-1.058,0.145-1.9,0.558-1.9,0.558L248.734,477.142z"/>
			<path style="fill:#FBFFFA;" d="M245.734,479.162c0.024-0.032,0.049-0.063,0.073-0.093l-0.202-0.146l-0.316-0.23
				c-0.018,0.024-0.516,0.48-0.908,1.325c-0.017-0.026-0.035-0.053-0.058-0.078c-0.117-0.127-0.281-0.192-0.49-0.188
				c-0.003,0-0.006,0-0.01,0c-0.129,0-0.218-0.044-0.275-0.097c0.058-0.072,0.091-0.165,0.091-0.268
				c0-0.237-0.193-0.433-0.433-0.433c-0.238,0-0.433,0.195-0.433,0.433c0,0.24,0.194,0.434,0.433,0.434
				c0.037,0,0.074-0.006,0.108-0.013c0.106,0.117,0.275,0.221,0.522,0.216c0.128-0.001,0.221,0.031,0.283,0.101
				c0.072,0.078,0.096,0.19,0.104,0.276c-0.001,0.001-0.001,0.003-0.002,0.003c-0.282,0.771-0.201,1.729-0.201,1.729l0.684,0.026
				c0.015-0.349,0.064-0.958,0.24-1.443c0.342-0.938,0.769-1.523,0.785-1.549L245.734,479.162z"/>
			<path style="fill:#FBFFFA;" d="M257.554,477.242c-0.238,0-0.433,0.192-0.433,0.433c0,0.037,0.006,0.072,0.015,0.107
				c-0.118,0.107-0.222,0.276-0.218,0.523c0.002,0.128-0.031,0.221-0.101,0.283c-0.055,0.048-0.124,0.074-0.19,0.091
				c-0.51-0.713-1.137-1.148-1.137-1.148l-0.491,0.525c0.371,0.338,0.75,0.762,1.118,1.288c0.255,0.365,0.518,0.836,0.736,1.305
				l0.662-0.314c0,0-0.303-0.748-0.729-1.419c0.073-0.026,0.148-0.066,0.215-0.124c0.129-0.117,0.192-0.282,0.188-0.49
				c0-0.136,0.043-0.227,0.097-0.287c0.073,0.058,0.166,0.094,0.267,0.094c0.24,0,0.434-0.195,0.434-0.434
				C257.987,477.435,257.794,477.242,257.554,477.242z"/>
			<path style="fill:#FBFFFA;" d="M255.834,483.197c-0.912,0.445-2.414,1.032-4.389,1.308c-0.775,0.107-1.527,0.147-2.219,0.147
				c-0.901,0-1.695-0.066-2.306-0.145c-0.697-0.087-1.242-0.194-1.574-0.271c0,0-0.002,0-0.003,0c0.082,0.26,0.182,0.511,0.296,0.75
				c0.003,0.007,0.006,0.014,0.008,0.018c0.015,0.028,0.028,0.059,0.042,0.087c0.016,0.028,0.028,0.056,0.043,0.082
				c0.004,0.008,0.008,0.015,0.012,0.022c0.195,0.369,0.431,0.709,0.699,1.003c0.931,1.02,1.881,1.181,1.89,1.182l0.015,0.002
				l0.015,0.004c0.008,0.004,0.85,0.275,2.13,0.275c1.26,0,2.495-0.254,3.672-0.755c0.872-0.446,1.698-1.124,2.106-1.729
				c0.316-0.468,0.545-0.966,0.68-1.484c0.072-0.275,0.129-0.717,0.096-1.181C256.789,482.685,256.383,482.93,255.834,483.197z"/>
			<path style="fill:#FBFFFA;" d="M251.365,483.964c1.9-0.269,3.333-0.822,4.211-1.252c0.726-0.344,1.194-0.668,1.376-0.802
				c-0.182-0.659-0.678-1.71-1.137-2.359c-1.289-1.853-2.692-2.33-3.409-2.445c-0.277-0.047-0.497-0.066-0.803-0.066
				c-0.296,0-0.649,0.02-1.137,0.066c-0.477,0.049-1.012,0.182-1.633,0.392c-0.878,0.287-1.661,0.745-2.282,1.318l-0.019,0.02
				c-0.096,0.086-0.287,0.268-0.507,0.545c-0.028,0.038-0.43,0.602-0.735,1.46c-0.239,0.65-0.229,1.586-0.229,1.595
				c0,0.221,0.02,0.439,0.038,0.659c0,0,0,0,0,0.01c0.009,0.029,0.009,0.048,0.009,0.076c0.019,0.153,0.049,0.307,0.077,0.459
				C245.645,483.753,248.348,484.383,251.365,483.964z M253.963,478.949c0.62,0,1.127,0.506,1.127,1.127
				c0,0.631-0.507,1.137-1.127,1.137c-0.621,0-1.127-0.506-1.127-1.137C252.836,479.455,253.342,478.949,253.963,478.949z
				 M246.81,480.726c0-1.003,0.811-1.814,1.823-1.814c1.004,0,1.824,0.812,1.824,1.814c0,1.013-0.82,1.824-1.824,1.824
				C247.621,482.55,246.81,481.738,246.81,480.726z"/>
		</g>
	</g>
</g>
</svg>
